<?xml version="1.0" encoding="UTF-8"?>
<svg id="Layer_1" xmlns="http://www.w3.org/2000/svg" version="1.1" xmlns:xlink="http://www.w3.org/1999/xlink" viewBox="0 0 200 200">
  <!-- Generator: Adobe Illustrator 30.2.1, SVG Export Plug-In . SVG Version: 2.1.1 Build 1)  -->
  <defs>
    <style>
      .st0 {
        fill: #f5f3ef;
      }

      .st1, .st2 {
        fill: #2a2a2e;
      }

      .st2 {
        stroke: #000;
        stroke-miterlimit: 10;
        stroke-width: .02px;
      }

      .st3 {
        fill: url(#linear-gradient);
      }
    </style>
    <linearGradient id="linear-gradient" x1="12296.87" y1="-19209.61" x2="18004.93" y2="-19209.61" gradientTransform="translate(-192.83 -310.02) scale(.02 -.02)" gradientUnits="userSpaceOnUse">
      <stop offset="0" stop-color="#df1800"/>
      <stop offset=".85" stop-color="#9f0008"/>
    </linearGradient>
  </defs>
  <g id="surface2">
    <path class="st0" d="M10.13,69.11c-2.53.26-4.1,3.02-3.14,5.53,4.35,11.48,9.77,23.78,16.63,36.5,19.55,36.32,43.12,62.16,62.24,79.51,1,.9,44.81-17.35,42.18-19.25-14.06-10.08-34.51-28.06-49.57-56.81-9.33-17.81-13.88-34.55-16.2-47.4-.37-2.06-2.14-3.47-4.12-3.27-16,1.72-32.02,3.45-48.02,5.19Z"/>
    <path class="st3" d="M101.18,18.99l25.08,42.49c1.22,2.08,3.53,3.43,6.12,3.57l48.79,2.7c6.31.34,9.31,7.15,5.08,11.52l-33.98,35.18c-1.63,1.7-2.29,4.03-1.75,6.21l11.08,45.17c1.39,5.65-4.96,10.4-10.71,8.01-6.94-2.02-15.53-5.29-24.67-10.8-15.47-9.33-25.65-20.91-31.63-28.99-4.8-7.65-9.88-16.89-14.57-27.66-5.92-13.62-9.67-26.24-12.12-36.88-.18-.46-.41-1.16-.47-2.02-.06-1,.12-2.02.55-2.96l19.37-44.61c2.41-5.53,10.77-6.09,13.84-.92Z"/>
    <path class="st0" d="M101.31,18.93c7.53,12.76,17.24,29.03,24.9,41.71.29.46.55.92.88,1.32,1.35,1.7,3.51,2.6,5.67,2.62,8.94.4,24.28,1.02,33.22,1.36l15.2.58c2.92.08,5.9,1.64,7.37,4.21,1.86,3.1,1.31,6.99-1.22,9.6-10.39,11.16-22.94,24.58-33.43,35.68-.94,1.02-1.41,2.48-1.16,3.81l.06.3.12.44c2.18,8.49,5.84,23.06,7.98,31.57.86,3.55,2.45,9.86,3.31,13.38,1.29,5.79-3.55,11.08-9.39,11.44-1.67.12-3.39-.18-4.9-.8-4.35-1.26-11.57-3.91-16.55-6.45-10.75-5.33-20.53-12.5-28.86-20.99-4.18-4.23-7.98-8.79-11.41-13.58-3.12-5.09-5.96-10.34-8.59-15.66-8.1-16.45-14.22-34.49-17.71-52.04-.04-1.2.27-2.38.78-3.45,5.24-11.58,10.57-23.58,15.69-35.2l3.55-8.05.22-.5c.08-.18.14-.34.22-.5.47-1.02,1.18-1.94,2.08-2.66,3.59-2.9,9.61-2.22,11.96,1.88ZM101.06,19.07c-2.27-3.93-8.08-4.59-11.51-1.76-.86.68-1.53,1.54-1.98,2.52-.1.22-.35.76-.45,1-5.57,12.98-13.28,30.53-18.84,43.43-.8,1.6-.9,3.53-.2,5.19,5.22,22.7,14.26,44.69,26.71,64.46,13.75,18.69,33.49,33.17,56.18,39.66,4.92,2.14,11.22-1.56,10.49-7.05-.02-.08-.02-.14-.04-.22l-.08-.44c-.33-1.3-1.12-4.51-1.45-5.87-1.8-7.43-7.9-32.11-9.71-39.76-.35-2,.31-4.09,1.61-5.61.8-.86,2.94-3.04,3.75-3.91,9.12-9.46,20.96-21.65,30.02-31.05l.33-.34c.22-.22.43-.44.63-.68,1.67-1.98,1.96-4.93.63-7.15-1.2-2.14-3.59-3.45-6.06-3.55-11.26-.62-36.88-2.06-48.36-2.7-2.35-.04-4.69-1.08-6.12-2.92-.24-.3-.47-.66-.65-1-6.1-10.36-18.69-31.71-24.9-42.25Z"/>
    <path class="st2" d="M22.21,77.1l29.98-3.77c3.18,12.34,8.33,27.56,16.88,43.73,14.47,27.32,32.3,45.35,44.81,55.99-7.26,2.94-14.55,5.89-21.81,8.81-15-12-36.34-32.51-53.26-64.18-7.82-14.64-13.04-28.57-16.59-40.58Z"/>
    <path class="st0" d="M31.88,105.61l18.96-3.95,10.63-2.22,1.39,2.94-29.3,7.05-1.67-3.83Z"/>
    <path class="st0" d="M43.98,127.72l18.47-5.99,10.37-3.37,1.65,2.78-28.49,10.2-2-3.63Z"/>
    <path class="st0" d="M54.98,148.08l18.12-7.09,10.16-4.01,1.82,2.68-27.9,11.92-2.2-3.51Z"/>
    <path class="st0" d="M70.53,164.28l18.08-7.19,10.16-4.05,1.82,2.66-27.84,12.06-2.22-3.49Z"/>
    <path class="st1" d="M14.68,78.23l4.41-.64c4.12,13.66,10.67,30.69,21.33,48.68,16.43,27.74,35.71,46.03,49.45,57.03l-5.75,2.04c-13.73-12.2-31.71-31.01-47.47-57.93-10.55-18.03-17.41-35.1-21.96-49.18Z"/>
    <path class="st1" d="M55.39,73.18l4.59-.96c2.55,11.5,6.84,25.6,14.22,40.54,4,8.11,12.8,24.3,28.2,40.76,6.65,7.11,12.86,12.48,17.69,16.31-1.02.56-2.04,1.12-3.06,1.66-11.53-9.33-28.43-25.5-42.63-50.58-10.16-17.97-15.79-34.92-19.02-47.74Z"/>
    <path class="st0" d="M57.9,84.66l4.96-.8,2.8-.46-.47,2.04-7.92,1.86.63-2.64Z"/>
    <path class="st0" d="M16.72,89.26l4.96-.82,2.8-.44-.47,2.04-7.92,1.86.63-2.64Z"/>
    <path class="st0" d="M22.39,101.2l4.96-.8,2.78-.46-.45,2.04-7.92,1.86.63-2.64Z"/>
    <path class="st0" d="M60.96,97.68l4.96-.8,2.8-.46-.47,2.04-7.92,1.86.63-2.64Z"/>
    <path class="st0" d="M28.33,113.08l4.53-.8,2.55-.44-.45,1.9-7.22,1.78.59-2.44Z"/>
    <path class="st0" d="M69.11,110.66l3.75-1.14,2.12-.64-.1,1.54-5.92,2.22.14-1.98Z"/>
    <path class="st0" d="M74.25,122.72l3.53-1.64,1.98-.92.1,1.52-5.51,3.02-.1-1.98Z"/>
    <path class="st0" d="M80.64,133.65l4.02-1.8,2.27-1.02.1,1.68-6.26,3.35-.12-2.2Z"/>
    <path class="st0" d="M87.84,143.97l3.73-2.38,2.1-1.34.35,1.66-5.78,4.23-.41-2.16Z"/>
    <path class="st0" d="M95.21,152.52l3.63-2.58,2.02-1.44.41,1.62-5.55,4.55-.51-2.14Z"/>
    <path class="st0" d="M102.82,161.06l3.61-2.58,2.04-1.46.41,1.64-5.57,4.53-.49-2.12Z"/>
    <path class="st0" d="M111.53,168.71l3.61-2.58,2.04-1.46.41,1.64-5.57,4.53-.49-2.12Z"/>
    <path class="st0" d="M35.07,125.52l2.9-1.34,1.63-.74-.06,1.42-4.57,2.52.1-1.86Z"/>
    <path class="st0" d="M41.15,135.24l2.9-1.34,1.63-.76-.06,1.44-4.57,2.52.1-1.86Z"/>
    <path class="st0" d="M47.37,144.35l2.9-1.34,1.63-.74-.06,1.42-4.57,2.52.1-1.86Z"/>
    <path class="st0" d="M54.15,153.18l2.9-1.34,1.63-.76-.06,1.44-4.57,2.5.1-1.84Z"/>
    <path class="st0" d="M75.47,179.41l4.29-2.9,2.41-1.64.63,1.12-6.55,4.89-.78-1.46Z"/>
    <path class="st0" d="M68.78,171.81l4.29-2.92,2.41-1.62.63,1.1-6.53,4.91-.8-1.46Z"/>
    <path class="st0" d="M60.06,163.18l4.29-2.9,2.41-1.64.63,1.12-6.53,4.89-.8-1.46Z"/>
  </g>
</svg>